<?xml version="1.0" encoding="UTF-8" standalone="no"?>
<!-- Created with Inkscape (http://www.inkscape.org/) -->

<svg
   width="57.832329mm"
   height="34.105007mm"
   viewBox="0 0 57.832329 34.105007"
   version="1.1"
   id="svg1"
   xml:space="preserve"
   sodipodi:docname="drawings-2.svg"
   inkscape:version="1.4 (86a8ad7, 2024-10-11)"
   inkscape:export-filename="drawings-2.png"
   inkscape:export-xdpi="96"
   inkscape:export-ydpi="96"
   xmlns:inkscape="http://www.inkscape.org/namespaces/inkscape"
   xmlns:sodipodi="http://sodipodi.sourceforge.net/DTD/sodipodi-0.dtd"
   xmlns="http://www.w3.org/2000/svg"
   xmlns:svg="http://www.w3.org/2000/svg"><sodipodi:namedview
     id="namedview1"
     pagecolor="#ffffff"
     bordercolor="#000000"
     borderopacity="0.25"
     inkscape:showpageshadow="2"
     inkscape:pageopacity="0.0"
     inkscape:pagecheckerboard="0"
     inkscape:deskcolor="#d1d1d1"
     inkscape:document-units="mm"
     inkscape:zoom="1.1433196"
     inkscape:cx="422.89136"
     inkscape:cy="669.97887"
     inkscape:window-width="1916"
     inkscape:window-height="2041"
     inkscape:window-x="1911"
     inkscape:window-y="0"
     inkscape:window-maximized="0"
     inkscape:current-layer="layer1"
     inkscape:export-bgcolor="#ffffffff"><inkscape:page
       x="-5.3889632e-14"
       y="0"
       width="57.832333"
       height="34.105007"
       id="page2"
       margin="0"
       bleed="0" /></sodipodi:namedview><defs
     id="defs1" /><g
     inkscape:label="Layer 1"
     inkscape:groupmode="layer"
     id="layer1"
     transform="translate(-12.645211,-16.645629)"><path
       id="rect3"
       style="fill:#3771c8;stroke-width:0.127099"
       d="m 17.073976,16.645631 c -2.453575,0 -4.428765,2.323966 -4.428765,5.21058 v 23.684123 c 0,2.886614 1.97519,5.210297 4.428765,5.210297 h 14.163461 c -1.037973,-0.598586 -2.028438,-1.276308 -2.816157,-1.948499 -0.161777,-0.138046 -0.359895,-0.306311 -0.440457,-0.373913 -0.215107,-0.18049 -1.069031,-1.00444 -1.452153,-1.401164 -1.939473,-2.008335 -3.436097,-4.480699 -4.323331,-7.142657 -0.209889,-0.629725 -0.44911,-1.525017 -0.541569,-2.026273 -0.03242,-0.175763 -0.07845,-0.408056 -0.102264,-0.516218 -0.02381,-0.108156 -0.06686,-0.373645 -0.09564,-0.589968 -0.02877,-0.216322 -0.07394,-0.551883 -0.100536,-0.745517 -0.13229,-0.963212 -0.103217,-3.579325 0.05099,-4.576547 0.02613,-0.169001 0.06656,-0.434485 0.08988,-0.589962 0.125287,-0.835484 0.535094,-2.431604 0.822436,-3.203322 0.434772,-1.167666 1.336286,-2.940251 2.002652,-3.937606 0.335744,-0.502511 1.055997,-1.459908 1.478943,-1.96607 0.467163,-0.559079 1.718209,-1.812057 2.266235,-2.269688 0.611742,-0.510832 1.788005,-1.389217 2.287839,-1.708534 0.228893,-0.146224 0.537752,-0.343995 0.686467,-0.439307 0.204712,-0.131189 0.723099,-0.404645 1.24532,-0.669755 z m 18.488232,0 c -0.564426,0.576801 -1.171913,1.198248 -2.445701,2.465285 -5.868818,5.837719 -6.062359,6.038823 -6.599648,6.849696 -0.524518,0.791602 -1.006176,1.933525 -1.233509,2.925044 -0.0961,0.41915 -0.102303,0.619814 -0.11926,3.803942 -0.01722,3.239277 -0.01433,3.380534 0.08412,3.894974 0.234239,1.22433 0.834315,2.508442 1.64055,3.510402 0.108791,0.135203 1.694312,1.75032 3.523077,3.589046 1.828759,1.838721 3.414167,3.45385 3.523365,3.589048 0.517082,0.640199 0.982713,1.447783 1.2047,2.089359 0.189041,0.546342 0.274269,0.913711 0.310542,1.388204 h 1.742812 c -0.01492,-0.337127 -0.03941,-0.588279 -0.09247,-0.847497 -0.265027,-1.294213 -0.842798,-2.560185 -1.567668,-3.434641 -0.331882,-0.400363 -3.230406,-3.333229 -5.618201,-5.685034 -1.731807,-1.705702 -1.966899,-1.997069 -2.450885,-3.033362 -0.239229,-0.512215 -0.364673,-0.908994 -0.492022,-1.556719 -0.0946,-0.48116 -0.100247,-0.689032 -0.100247,-3.773121 v -3.264106 h 0.333868 c 0.753567,0 1.641417,0.408007 2.298786,1.05635 0.18258,0.180072 0.500943,0.687243 0.58766,0.935936 0.17103,0.490503 0.184633,0.612857 0.221524,2.014461 0.04198,1.595362 0.08414,1.876772 0.3863,2.577638 0.548706,1.272734 1.567852,2.306792 3.079452,3.124387 1.108689,0.599674 1.252751,0.683157 1.756928,1.019185 1.159695,0.772933 2.136915,1.765974 2.964512,3.01262 0.70212,1.057637 1.084222,1.933921 1.371206,3.144271 0.248226,1.046885 0.248739,1.053987 0.249179,4.230857 v 0.478775 h 1.893478 v -0.189265 c 4.52e-4,-2.895382 0.02767,-3.390149 0.241397,-4.412055 0.391567,-1.87195 1.394742,-3.643348 2.887891,-5.099387 0.951962,-0.928293 1.507023,-1.322553 2.819034,-2.0015 1.509894,-0.781356 2.049095,-1.17604 2.80579,-2.055082 0.211495,-0.245695 0.511229,-0.7155 0.671483,-1.052599 0.39974,-0.840841 0.504712,-1.444812 0.504986,-2.905171 2.11e-4,-1.15397 0.05212,-1.494464 0.313708,-2.060267 0.459631,-0.994166 1.647879,-1.768844 2.808376,-1.830676 l 0.245723,-0.01296 0.03889,2.113843 c 0.04231,2.302187 0.01395,4.382399 -0.0677,4.979842 -0.06016,0.440115 -0.269949,1.099719 -0.518526,1.62989 -0.174732,0.37267 -0.23046,0.467759 -0.58766,1.00565 -0.11926,0.179582 -1.508673,1.601527 -3.651269,3.736536 -1.902336,1.895597 -3.585969,3.601411 -3.74143,3.790692 -0.803186,0.97789 -1.264913,1.923687 -1.631908,3.343035 -0.07208,0.278762 -0.09307,0.556086 -0.102553,1.019475 h 1.752611 c 0.01311,-0.203892 0.02985,-0.382074 0.05156,-0.481367 0.204973,-0.937547 0.466455,-1.587931 0.923544,-2.297342 0.379142,-0.588441 0.692014,-0.91889 3.848594,-4.066662 1.74896,-1.744083 3.346178,-3.359206 3.549295,-3.589047 0.972783,-1.100784 1.63955,-2.480035 1.878204,-3.885179 0.09596,-0.565028 0.10213,-0.788118 0.10198,-3.729044 -1.62e-4,-3.303595 -0.0093,-3.464819 -0.240828,-4.312389 -0.232718,-0.851823 -0.715411,-1.878951 -1.219972,-2.596073 -0.201249,-0.286037 -1.113444,-1.229827 -3.236445,-3.348218 -3.661264,-3.653309 -4.795361,-4.767985 -5.79911,-5.699723 -0.04141,-0.03844 -0.0656,-0.06364 -0.104282,-0.09996 z m 14.634743,0 c 1.361646,0.665736 2.718605,1.520184 3.788673,2.433025 0.78076,0.666043 1.950054,1.815414 2.536733,2.49352 0.864728,0.999479 1.826808,2.384025 2.444263,3.517604 0.293585,0.539001 0.438677,0.843561 0.872555,1.829523 0.396005,0.899885 0.901152,2.666333 1.096682,3.834769 0.220682,1.31874 0.226206,1.394982 0.225844,3.171056 -3.9e-4,1.902688 -0.03228,2.269376 -0.322059,3.697643 -0.726554,3.581036 -2.317747,6.663843 -4.838113,9.374037 -0.479064,0.515137 -1.894398,1.819489 -2.394138,2.206318 -0.694868,0.537863 -1.508717,1.076128 -2.319523,1.547505 h 14.760916 c 2.453573,0 4.428762,-2.323683 4.428762,-5.210297 V 21.856211 c 0,-2.886614 -1.975189,-5.21058 -4.428762,-5.21058 z m -13.19181,1.507748 c 0.08315,-0.0062 0.170914,-0.005 0.266465,0.0026 0.482688,0.0383 0.885365,0.302047 1.083136,0.709222 0.05368,0.110575 0.09928,0.334758 0.110909,0.545027 0.03518,0.635946 0.03192,0.639959 -2.224178,2.86081 -1.083787,1.066857 -2.88787,2.853245 -4.009335,3.969871 -1.12146,1.116627 -2.050655,2.028637 -2.064875,2.026564 -0.01422,-0.0022 -0.136734,-0.07154 -0.271937,-0.154408 -0.59086,-0.362156 -1.689704,-0.825026 -1.958577,-0.825026 -0.04175,0 -0.08933,-0.02228 -0.106009,-0.04926 -0.0678,-0.1097 0.379989,-0.746332 0.919514,-1.307257 0.210408,-0.218759 0.428381,-0.451058 0.484243,-0.516218 0.05587,-0.06516 1.599118,-1.618997 3.429455,-3.453074 1.99247,-1.996545 3.443238,-3.412063 3.61526,-3.527109 0.266922,-0.178517 0.476489,-0.26326 0.725929,-0.281733 z m 7.98526,2.9e-4 c 0.07205,-0.0047 0.145069,-0.0038 0.218357,0.0029 0.543516,0.04928 0.650345,0.128815 2.113268,1.573432 3.681355,3.635281 6.561809,6.520975 6.685779,6.697881 0.207894,0.296668 0.331017,0.530215 0.367865,0.69799 0.03267,0.148799 0.02957,0.151798 -0.227572,0.210291 -0.413709,0.09411 -0.821442,0.241898 -1.219392,0.442183 -0.591718,0.297811 -0.786719,0.410125 -0.786719,0.452842 0,0.02202 -0.02246,0.04004 -0.04984,0.04004 -0.02743,0 -0.995433,-0.935941 -2.151008,-2.079855 -1.155581,-1.143919 -2.322222,-2.288814 -2.592617,-2.544219 -2.082163,-1.966771 -3.379407,-3.271296 -3.492826,-3.512414 -0.14682,-0.312131 -0.156614,-0.881791 -0.02045,-1.198365 0.192297,-0.447006 0.65078,-0.749654 1.155152,-0.782683 z m -7.843239,6.09668 c 0.09683,0.0076 0.196383,0.02781 0.302181,0.05991 0.33944,0.103021 0.497041,0.196906 0.690793,0.411362 0.237043,0.262379 0.353571,0.627969 0.322633,1.013426 -0.03941,0.491194 -0.232851,0.769884 -1.022067,1.472607 -0.14789,0.131685 -1.043896,1.005761 -1.991126,1.942154 -2.265828,2.239904 -3.117914,3.054394 -3.194969,3.054394 -0.0412,0 -0.07514,-0.106818 -0.09708,-0.30708 -0.07999,-0.730328 -0.359422,-1.534962 -0.767127,-2.2092 l -0.109466,-0.181482 0.160742,-0.187246 c 0.433593,-0.5061 4.585135,-4.624186 4.820539,-4.781648 0.329256,-0.220236 0.594433,-0.310107 0.884946,-0.287202 z m 7.915255,0.06424 c 0.450935,0.0011 0.708252,0.08968 1.007952,0.345968 0.332188,0.28407 4.842605,4.81112 4.842432,4.860293 -1e-4,0.02927 -0.04786,0.130632 -0.10601,0.225269 -0.431101,0.701513 -0.723638,1.557205 -0.788731,2.306853 -0.008,0.09256 -0.03662,0.174074 -0.06367,0.181193 -0.02704,0.0071 -0.736866,-0.654928 -1.577172,-1.471169 -0.840306,-0.816235 -2.024021,-1.958794 -2.630355,-2.539034 -1.669168,-1.597341 -1.757005,-1.689983 -1.891455,-1.994009 -0.242228,-0.547719 -0.133537,-1.191581 0.266465,-1.580054 0.27714,-0.269157 0.466047,-0.336687 0.94054,-0.33531 z m -8.071674,6.082561 c 0.193004,-0.01282 0.391294,-7.25e-4 0.539262,0.04004 0.334418,0.09215 0.574348,0.267647 0.758484,0.554537 0.148125,0.230777 0.161604,0.283807 0.161604,0.645846 0,0.615042 -0.119115,0.811626 -0.974534,1.609153 -2.028146,1.890892 -2.486646,2.488363 -2.718502,3.543526 -0.04588,0.20868 -0.107492,0.37738 -0.13712,0.374782 -0.02966,-0.0028 -0.178816,-0.07127 -0.331567,-0.152679 -0.431737,-0.230075 -0.926411,-0.63016 -1.207871,-0.976841 -0.280657,-0.345695 -0.752405,-1.232158 -0.751859,-1.412977 2.46e-4,-0.08106 0.272039,-0.39029 0.95005,-1.081407 2.480441,-2.528371 2.830713,-2.859934 3.20476,-3.034225 0.126663,-0.05902 0.314282,-0.09693 0.507293,-0.109755 z m 8.250854,2.9e-4 c 0.227249,0.02881 0.453265,0.115871 0.681283,0.261565 0.22212,0.141926 3.277546,3.136394 3.79674,3.720983 0.23808,0.268065 0.238298,0.275507 0.02593,0.722188 -0.299967,0.630907 -0.848712,1.240882 -1.484418,1.650343 -0.415867,0.267864 -0.720311,0.421012 -0.759059,0.382263 -0.01689,-0.01689 -0.03054,-0.08509 -0.03054,-0.151809 0,-0.125336 -0.07631,-0.442841 -0.152963,-0.636632 -0.204756,-0.517711 -0.61226,-1.105461 -1.141037,-1.645732 -0.407599,-0.416463 -1.414704,-1.362712 -1.771911,-1.664747 -0.158788,-0.134261 -0.523185,-0.638115 -0.611858,-0.846059 -0.08331,-0.195368 -0.07346,-0.774215 0.017,-0.990666 0.12343,-0.295402 0.441632,-0.601435 0.742067,-0.713838 0.23313,-0.08722 0.461521,-0.116674 0.68877,-0.08786 z" /></g></svg>
